<svg xmlns="http://www.w3.org/2000/svg" viewBox="0 0 1024 1024">
  <rect width="1024" height="1024" fill="#07182D"/>
  <path d="M119.61 655.98C122.69 640.79 160.35 550.29 163.91 529.4C167.47 508.52 165.41 394.6 167.08 377.51C168.74 360.42 182.74 310.82 186.06 301.56C189.38 292.31 205.68 261.69 211.38 254.1C217.07 246.5 254.65 206.47 262.01 200.3C269.37 194.13 302.36 175.14 309.48 171.82C316.6 168.5 345.55 157.19 356.94 156C368.33 154.81 450.21 155.05 461.37 156C472.52 156.95 498.31 165.57 505.67 168.66C513.03 171.74 545.94 185.75 559.47 197.14C572.99 208.53 667.53 307.26 686.04 320.55C704.56 333.84 794.66 368.41 806.29 374.35C817.92 380.28 835.88 394.44 841.1 399.66C846.32 404.88 871.16 434.71 875.91 443.96C880.66 453.22 902.26 508.12 904.39 523.08C906.53 538.03 906.05 627.42 904.39 643.32C902.73 659.23 886.51 723.7 882.24 735.09C877.97 746.49 853.13 788.1 847.43 795.22C841.74 802.34 811.75 826.47 806.29 830.03C800.83 833.59 779.63 841.97 774.65 842.68C769.66 843.4 742.93 841.89 739.84 839.52C736.75 837.15 730.19 817.69 733.51 811.04C736.83 804.39 779.63 758.75 784.14 750.92C788.65 743.08 793.4 713.5 793.64 706.61C793.87 699.73 788.97 665.08 787.31 659.15C785.65 653.21 774.57 631.77 771.48 627.5C768.4 623.23 751.63 605.75 746.17 602.19C740.71 598.63 705.58 582.41 698.7 580.04C691.82 577.66 663.18 571.25 654.4 570.54C645.62 569.83 588.98 570.07 581.62 570.54C574.26 571.02 560.57 574.74 556.3 576.87C552.03 579.01 527.74 594.51 524.66 599.02C521.57 603.53 514.69 632.25 515.16 637C515.64 641.74 524.34 659.46 530.99 662.31C537.63 665.16 595.46 672.83 603.77 674.97C612.08 677.1 637 687.71 641.74 690.79C646.49 693.88 664.21 711.83 667.06 716.11C669.91 720.38 679 742.29 679.72 747.75C680.43 753.21 678.45 783.19 676.55 788.89C674.65 794.58 659.15 819.19 654.4 823.7C649.65 828.21 620.86 845.93 613.26 849.01C605.67 852.1 570.94 863.41 553.14 864.84C535.34 866.26 397.05 868.71 375.93 868C354.81 867.29 283.84 857.72 271.5 855.34C259.16 852.97 219.21 839.92 211.38 836.36C203.55 832.8 172.3 812.38 167.08 807.88C161.85 803.37 145.08 781.93 141.76 776.23C138.44 770.54 124.43 740.95 122.77 731.93C121.11 722.91 116.52 671.17 119.61 655.98Z" fill="#DCE9FF"/>
</svg>
